<svg width="80" height="80" viewBox="0 0 49 47" fill="none" xmlns="http://www.w3.org/2000/svg">
<path d="M22.1631 42.2713C33.836 42.2713 43.2987 32.8086 43.2987 21.1357C43.2987 9.4628 33.836 0 22.1631 0C10.4902 0 1.02744 9.4628 1.02744 21.1357C1.02744 32.8086 10.4902 42.2713 22.1631 42.2713Z" fill="#E7F1FA"/>
<path d="M47.8488 4.62347H18.7139V36.8407H47.8488V4.62347Z" fill="white"/>
<path d="M47.9222 37.2075H18.7139C18.4937 37.2075 18.3469 37.0608 18.3469 36.8406V28.401H19.0808V36.4737H47.4819V4.99035H19.0808V19.1542H18.3469V4.55C18.3469 4.32984 18.4937 4.18306 18.7139 4.18306H47.8488C48.069 4.18306 48.2157 4.32984 48.2157 4.55V36.7672C48.2891 37.0608 48.1423 37.2075 47.9222 37.2075Z" fill="#2D5062"/>
<path d="M8.3665 19.1548C10.348 19.1548 11.8157 17.5402 11.8157 15.5587V14.3846C11.8157 12.4031 10.348 10.7885 8.3665 10.7885C6.38503 10.7885 4.91727 12.4031 4.91727 14.3846V15.5587C4.91727 17.5402 6.38503 19.1548 8.3665 19.1548Z" fill="white"/>
<path d="M8.36622 19.5946C6.23798 19.5946 4.55005 17.8333 4.55005 15.5583V14.3841C4.55005 12.1091 6.23798 10.3478 8.36622 10.3478C10.4945 10.3478 12.1823 12.1091 12.1823 14.3841V15.5583C12.1823 17.8333 10.4945 19.5946 8.36622 19.5946ZM8.36622 11.155C6.6783 11.155 5.28393 12.5494 5.28393 14.3841V15.5583C5.28393 17.393 6.60491 18.7874 8.36622 18.7874C10.0541 18.7874 11.4485 17.393 11.4485 15.5583V14.3841C11.4485 12.5494 10.1275 11.155 8.36622 11.155Z" fill="#2D5062"/>
<path d="M6.45812 21.5026C7.85249 21.5026 21.3558 21.5026 22.6034 21.5026C22.6034 23.0438 20.9155 24.9518 18.7873 25.3188L13.43 26.0526V46.748H4.25649V36.0334H3.52261C1.90808 36.0334 0.440321 34.639 0.440321 32.9511V26.0526C0.293546 22.6768 2.78874 21.5026 6.45812 21.5026Z" fill="#F7E436"/>
<path d="M13.7235 46.8214H12.9896V25.7591L18.7139 24.9518C20.5486 24.5848 21.9429 23.1171 22.1631 21.8695H6.45811C2.49517 21.8695 0.733877 23.1905 0.733877 26.126V33.0244C0.733877 34.4188 1.98148 35.7398 3.44923 35.7398V36.4737C1.54115 36.4737 0 34.8591 0 33.0244V26.126C0 22.8236 2.20165 21.1357 6.53153 21.1357H23.0438V21.5026C23.0438 23.1171 21.3558 25.2453 18.8607 25.6857L13.7969 26.4195V46.8214H13.7235Z" fill="#2D5062"/>
<path d="M9.10009 34.5658H8.36621V46.8215H9.10009V34.5658Z" fill="#2D5062"/>
<path d="M4.47664 26.1261H3.74277V46.8215H4.47664V26.1261Z" fill="#2D5062"/>
<path d="M35.5934 42.1984L33.3184 40.6573L31.0433 42.1984V31.4838H35.5934V42.1984Z" fill="#F7E436"/>
<path d="M36.0333 42.9319L33.318 41.1706L30.6027 42.9319V31.1165H35.96V42.9319H36.0333ZM33.318 40.2166L35.2261 41.4641V31.8503H31.4099V41.4641L33.318 40.2166Z" fill="#2D5062"/>
<path d="M33.3184 34.4925C35.426 34.4925 37.1345 32.784 37.1345 30.6764C37.1345 28.5687 35.426 26.8602 33.3184 26.8602C31.2108 26.8602 29.5022 28.5687 29.5022 30.6764C29.5022 32.784 31.2108 34.4925 33.3184 34.4925Z" fill="#F7E436"/>
<path d="M33.318 34.9326C30.9696 34.9326 29.0615 33.0245 29.0615 30.6761C29.0615 28.3277 30.9696 26.4196 33.318 26.4196C35.6665 26.4196 37.5745 28.3277 37.5745 30.6761C37.5745 33.0245 35.6665 34.9326 33.318 34.9326ZM33.318 27.2268C31.41 27.2268 29.8688 28.768 29.8688 30.6761C29.8688 32.5842 31.41 34.1253 33.318 34.1253C35.2261 34.1253 36.7672 32.5842 36.7672 30.6761C36.7672 28.768 35.2261 27.2268 33.318 27.2268Z" fill="#2D5062"/>
<path d="M21.4292 9.98073H20.6219V6.53149H24.1446V7.26537H21.4292V9.98073Z" fill="#2D5062"/>
<path d="M46.0141 9.98073H45.2069V7.26537H42.5649V6.53149H46.0141V9.98073Z" fill="#2D5062"/>
<path d="M24.1446 34.9326H20.6219V31.4833H21.4292V34.1253H24.1446V34.9326Z" fill="#2D5062"/>
<path d="M46.0141 34.9326H42.5649V34.1253H45.2069V31.4833H46.0141V34.9326Z" fill="#2D5062"/>
<path d="M40.2165 14.971H26.4196V15.7049H40.2165V14.971Z" fill="#2D5062"/>
<path d="M37.868 18.0535H28.6946V18.7873H37.868V18.0535Z" fill="#2D5062"/>
</svg>
