<svg width="80" height="80" viewBox="0 0 52 52" fill="none" xmlns="http://www.w3.org/2000/svg">
<path d="M10.4131 12.4937L8.85632 14.0505L9.37525 14.5694L10.932 13.0126L10.4131 12.4937Z" fill="#2D5062"/>
<path d="M14.3023 8.63424L12.7455 10.191L13.2644 10.7099L14.8212 9.15316L14.3023 8.63424Z" fill="#2D5062"/>
<path d="M13.1976 12.5089L12.6787 13.0279L14.2355 14.5846L14.7544 14.0657L13.1976 12.5089Z" fill="#2D5062"/>
<path d="M9.39026 8.67164L8.87134 9.19057L10.4281 10.7473L10.947 10.2284L9.39026 8.67164Z" fill="#2D5062"/>
<path d="M21.7873 39.5745C32.1632 39.5745 40.5745 31.1632 40.5745 20.7873C40.5745 10.4114 32.1632 2 21.7873 2C11.4113 2 3 10.4114 3 20.7873C3 31.1632 11.4113 39.5745 21.7873 39.5745Z" fill="#E7F1FA"/>
<path d="M25.2365 21.9615C28.6411 21.9615 31.401 19.2015 31.401 15.7969C31.401 12.3923 28.6411 9.63232 25.2365 9.63232C21.8319 9.63232 19.0719 12.3923 19.0719 15.7969C19.0719 19.2015 21.8319 21.9615 25.2365 21.9615Z" fill="#F7E436"/>
<path d="M25.2365 22.3285C21.6405 22.3285 18.705 19.393 18.705 15.797C18.705 12.201 21.6405 9.2655 25.2365 9.2655C28.8325 9.2655 31.768 12.201 31.768 15.797C31.768 19.393 28.8325 22.3285 25.2365 22.3285ZM25.2365 10.0728C22.0808 10.0728 19.5122 12.6413 19.5122 15.797C19.5122 18.9527 22.0808 21.5213 25.2365 21.5213C28.3921 21.5213 30.9607 18.9527 30.9607 15.797C31.0341 12.6413 28.4655 10.0728 25.2365 10.0728Z" fill="#2D5062"/>
<path d="M25.2365 20.4204C22.8147 20.4204 18.705 21.3011 16.063 22.989C13.3477 20.7873 9.89843 20.4204 9.38472 21.1543C8.94439 21.7414 10.3388 24.1632 11.2928 25.8511C9.89843 26.8051 8.79762 28.1261 8.06374 29.7406C7.18309 30.1076 6.15566 30.3278 4.61452 30.3278C3.29354 30.3278 3.88064 34.0705 5.12823 36.4189C6.22905 38.5471 13.5678 43.0238 14.5219 43.1706L15.2557 49.6287H17.5308L19.2921 45.7392C21.0534 46.3263 23.9155 46.5464 25.9703 46.5464C28.2454 46.5464 30.5938 46.473 32.7954 45.8125L35.1438 49.6287H37.4188L38.8866 42.2165C41.3084 39.9415 42.7761 37.1528 42.7761 33.4834C42.9229 26.218 34.2632 20.4204 25.2365 20.4204Z" fill="white"/>
<path d="M37.8591 49.9954H34.997L32.6486 46.2527C30.5204 46.8398 28.2453 46.9132 25.9703 46.9132C24.0622 46.9132 21.3469 46.693 19.5122 46.1793L17.7509 49.9954H14.8888L14.0815 43.3905C12.3202 42.73 5.7887 38.6204 4.68788 36.4921C3.66046 34.5107 2.99997 31.4284 3.66046 30.3276C3.88062 30.034 4.17417 29.8138 4.54111 29.8138C4.6145 29.8138 4.6145 29.8138 4.6145 29.8138C5.93548 29.8138 6.88952 29.667 7.69679 29.3001C8.35728 27.8324 9.3847 26.5848 10.7057 25.6307C9.16453 22.842 8.50405 21.4476 9.01777 20.7872C9.23793 20.4936 9.75164 20.3468 10.4855 20.3468C11.8065 20.3468 14.0815 20.9339 16.063 22.4016C18.7049 20.7871 22.7413 19.9799 25.2364 19.9799C34.8502 19.9799 43.2898 26.2912 43.2898 33.4098C43.2898 36.859 41.9688 39.7211 39.3269 42.2897L37.8591 49.9954ZM35.4373 49.1882H37.1986L38.6664 41.9962L38.7398 41.9228C41.3084 39.501 42.4826 36.7122 42.4826 33.4832C42.4826 26.7315 34.4099 20.7872 25.2364 20.7872C22.888 20.7872 19.1453 21.5944 16.7235 22.9888C17.0904 23.3557 17.4574 23.7226 17.7509 24.163C17.8977 24.3097 17.8243 24.6033 17.6775 24.6767C17.5307 24.8235 17.2372 24.7501 17.1638 24.6033C16.7969 24.0896 16.2831 23.6492 15.8428 23.2823C15.8428 23.2823 15.8428 23.2823 15.7694 23.2089C14.0081 21.7412 11.8065 21.1541 10.5589 21.1541C9.89841 21.1541 9.67825 21.3008 9.60486 21.3008C9.3847 21.8145 10.9992 24.5299 11.5863 25.5574L11.7331 25.8509L11.4396 26.071C10.1186 26.9517 9.01776 28.2727 8.35727 29.7404L8.28389 29.8872L8.13711 29.9606C7.18306 30.4009 6.00887 30.6211 4.54111 30.6211C4.46772 30.6211 4.39433 30.6211 4.32095 30.7679C3.88062 31.5017 4.32095 34.0703 5.34838 36.1252C6.4492 38.2534 13.7146 42.5099 14.4485 42.6566L14.742 42.7301L15.4759 49.1882H17.1638L18.9985 45.2252L19.292 45.2987C21.0534 45.8124 23.8421 46.1059 25.8236 46.1059C28.172 46.1059 30.447 46.0325 32.5752 45.372L32.8688 45.2987L35.4373 49.1882Z" fill="#2D5062"/>
<path d="M13.788 30.034H12.2468C12.0267 30.034 11.8799 29.8873 11.8799 29.6671C11.8799 29.4469 12.0267 29.3002 12.2468 29.3002H13.788C14.0081 29.3002 14.1549 29.4469 14.1549 29.6671C14.1549 29.8873 13.9347 30.034 13.788 30.034Z" fill="#2D5062"/>
<path d="M46.9593 33.5567C46.8859 33.5567 46.7391 33.5567 46.6657 33.5567C46.2254 33.4833 45.7851 33.1163 45.6383 32.6026C45.5649 32.3824 45.4181 32.2357 45.2713 32.1623C45.1246 32.0889 44.9044 32.1623 44.831 32.2357L43.1431 33.0429C42.9229 33.1163 42.7028 33.043 42.6294 32.8962C42.556 32.676 42.6294 32.4558 42.7762 32.3824L44.3907 31.5752C44.6842 31.355 45.1246 31.2816 45.4915 31.4284C45.9318 31.5752 46.2254 31.9421 46.3722 32.3824C46.4455 32.6026 46.5923 32.7494 46.8125 32.8228C47.0326 32.8962 47.1794 32.8228 47.3262 32.676L47.9867 31.9421C48.1335 31.7953 48.3536 31.7953 48.5004 31.9421C48.6472 32.0889 48.6472 32.3091 48.5004 32.4559L47.8399 33.1897C47.6197 33.4099 47.2528 33.5567 46.9593 33.5567Z" fill="#2D5062"/>
<path d="M22.2276 33.1163C20.7598 33.1163 19.5122 31.9421 19.5122 30.401C19.5122 28.8598 20.6864 27.6857 22.2276 27.6857C23.6953 27.6857 24.9429 28.8598 24.9429 30.401C24.9429 31.9421 23.6953 33.1163 22.2276 33.1163ZM22.2276 28.4929C21.2001 28.4929 20.3195 29.3736 20.3195 30.401C20.3195 31.4284 21.2001 32.309 22.2276 32.309C23.255 32.309 24.1356 31.4284 24.1356 30.401C24.1356 29.3736 23.255 28.4929 22.2276 28.4929Z" fill="#2D5062"/>
<path d="M29.8599 39.2076C28.3921 39.2076 27.1445 38.0334 27.1445 36.4923C27.1445 35.0245 28.3187 33.7769 29.8599 33.7769C31.3276 33.7769 32.5752 34.9511 32.5752 36.4923C32.5752 38.0334 31.3276 39.2076 29.8599 39.2076ZM29.8599 34.6576C28.8324 34.6576 27.9518 35.5382 27.9518 36.5656C27.9518 37.5931 28.8324 38.4737 29.8599 38.4737C30.8873 38.4737 31.768 37.5931 31.768 36.5656C31.768 35.5382 30.9607 34.6576 29.8599 34.6576Z" fill="#2D5062"/>
<path d="M21.4204 39.2076C21.347 39.2076 21.2736 39.2076 21.2002 39.1342C21.0534 38.9875 21.0534 38.7672 21.1268 38.6205L30.3003 27.9059C30.4471 27.7591 30.6672 27.7591 30.814 27.8325C30.9608 27.9793 30.9608 28.1994 30.8874 28.3462L21.7139 39.0609C21.6405 39.2076 21.5671 39.2076 21.4204 39.2076Z" fill="#2D5062"/>
<path d="M45.5649 20.4204H44.8311V21.9616H45.5649V20.4204Z" fill="#2D5062"/>
<path d="M45.5649 23.5028H44.8311V25.0439H45.5649V23.5028Z" fill="#2D5062"/>
<path d="M44.4641 22.3285H42.923V23.0624H44.4641V22.3285Z" fill="#2D5062"/>
<path d="M47.5464 22.3285H46.0052V23.0624H47.5464V22.3285Z" fill="#2D5062"/>
<path d="M40.2076 12.7879H39.4738V14.329H40.2076V12.7879Z" fill="#2D5062"/>
<path d="M40.2076 15.7968H39.4738V17.3379H40.2076V15.7968Z" fill="#2D5062"/>
<path d="M39.1068 14.6959H37.5657V15.4298H39.1068V14.6959Z" fill="#2D5062"/>
<path d="M42.1891 14.6959H40.6479V15.4298H42.1891V14.6959Z" fill="#2D5062"/>
</svg>
