<svg width="80" height="80" viewBox="0 0 52 52" fill="none" xmlns="http://www.w3.org/2000/svg">
<path d="M28.6166 40.1419C37.0876 40.1248 43.9408 33.2438 43.9237 24.7729C43.9066 16.3019 37.0257 9.44868 28.5547 9.46578C20.0838 9.48287 13.2305 16.3638 13.2476 24.8348C13.2647 33.3058 20.1457 40.159 28.6166 40.1419Z" fill="#E9F3FD"/>
<path d="M30.0527 5.99997L13.9074 6.03256L13.9089 6.76644L30.0542 6.73385L30.0527 5.99997Z" fill="#005062"/>
<path d="M17.7969 29.046L4 29.0739L4.00148 29.8078L17.7984 29.7799L17.7969 29.046Z" fill="#005062"/>
<path d="M12.4397 6.08798L10.8985 6.09109L10.9 6.82497L12.4411 6.82186L12.4397 6.08798Z" fill="#005062"/>
<path d="M9.35736 6.08798L7.81619 6.09109L7.81767 6.82497L9.35884 6.82186L9.35736 6.08798Z" fill="#005062"/>
<path d="M48.4731 18.6373C48.6199 20.9123 46.932 22.9671 44.6569 23.1139C42.3819 23.2607 40.3271 21.5728 40.1803 19.2978C40.0335 17.0228 41.7215 14.9679 43.9965 14.8211C46.2715 14.601 48.2529 16.2889 48.4731 18.6373Z" fill="white"/>
<path d="M44.2896 23.4805C43.1888 23.4805 42.1614 23.1136 41.2808 22.3797C40.3267 21.5724 39.813 20.4717 39.7396 19.2974C39.6662 18.0499 40.0331 16.8757 40.8404 15.995C41.6477 15.1143 42.7485 14.5273 43.9227 14.4539C45.0969 14.3805 46.3445 14.7474 47.2251 15.5547C48.1792 16.362 48.6929 17.4627 48.7663 18.6369C48.8397 19.8845 48.4728 21.0587 47.6655 21.9394C46.8582 22.8934 45.7574 23.4071 44.5832 23.4805C44.5098 23.4805 44.4364 23.4805 44.2896 23.4805ZM44.2896 15.1143C44.2162 15.1143 44.0695 15.1143 43.9961 15.1143C42.9687 15.1877 42.088 15.628 41.4275 16.4353C40.767 17.1692 40.4735 18.1966 40.5469 19.2241C40.6203 20.2515 41.0606 21.1322 41.8678 21.7926C42.6751 22.4531 43.6291 22.7467 44.6566 22.6733C45.684 22.5999 46.5646 22.1595 47.2251 21.3523C47.8856 20.6184 48.1792 19.591 48.1058 18.5636C48.0324 17.5361 47.5921 16.6555 46.7848 15.995C46.051 15.4813 45.1703 15.1143 44.2896 15.1143Z" fill="#3B517F"/>
<path d="M40.767 28.1773L36.6573 19.1506C36.6573 19.1506 32.6944 15.3345 30.8597 14.8208H19.3378C19.7781 16.5087 21.2459 17.7562 23.3008 18.0498L28.9516 18.7103L31.3734 21.9394L26.383 27.0765L26.0895 27.4435C23.5943 30.5991 25.2088 33.241 27.704 36.0298L30.5661 38.9653L22.8604 43.442L24.0346 45.4234L35.4097 41.7541C36.6573 41.3137 37.171 39.7726 36.4371 38.5984L32.0339 32.0669L35.5565 28.4709C35.5565 28.4709 37.538 31.6265 38.5654 32.287H44.0695C47.005 32.287 48.5461 29.2048 48.5461 29.2048L40.767 28.1773Z" fill="#FFE600"/>
<path d="M24.1814 45.937L23.9612 45.2031L35.3363 41.5337C35.85 41.3869 36.217 40.9466 36.3638 40.4329C36.5105 39.9192 36.4372 39.4055 36.1436 38.9651L31.5202 32.2135L35.5565 28.0304L35.85 28.4707C36.3637 29.278 37.8315 31.553 38.6388 32.1401H43.9961C45.9776 32.1401 47.2985 30.5256 47.8122 29.7183L40.4001 28.5441L36.217 19.444C35.7766 19.0037 32.2541 15.7747 30.6395 15.261H19.7047C20.2918 16.5819 21.5394 17.536 23.2273 17.7562L29.025 18.49L31.7403 22.086L26.5298 27.5167L26.3096 27.8102C24.108 30.599 25.2088 32.874 27.9242 35.8829L31.0798 39.1853L23.0072 43.8822L22.6402 43.2217L29.9056 38.9651L27.4104 36.3966C25.1354 33.828 22.9338 30.8192 25.7959 27.2966L26.0895 26.9296L30.8597 21.9392L28.7314 19.0771L23.2273 18.4166C21.0991 18.123 19.4112 16.7287 18.8975 14.894L18.7507 14.3802H30.8597C32.6944 14.9674 36.6573 18.6367 36.8041 18.7835L36.8775 18.9303L40.9138 27.7369L48.9865 28.9844L48.7663 29.4247C48.6929 29.5715 47.1517 32.7272 43.9227 32.7272H38.2718L38.1984 32.6538C37.3178 32.0667 35.9234 30.0119 35.3363 29.1313L32.4008 32.1401L36.6573 38.3781C37.0977 39.0386 37.171 39.7725 36.9508 40.5064C36.7307 41.2402 36.1436 41.8273 35.4097 42.0475L24.1814 45.937Z" fill="#005062"/>
<path d="M23.868 37.063L9.06808 44.2188L9.38754 44.8795L24.1874 37.7237L23.868 37.063Z" fill="#005062"/>
<path d="M22.3966 32.0313L7.74475 42.4525L8.17011 43.0505L22.822 32.6293L22.3966 32.0313Z" fill="#005062"/>
<path d="M23.9118 21.53L18.311 11.461L10.9356 15.5635L16.5364 25.6325L23.9118 21.53Z" fill="white"/>
<path d="M16.3289 26.1958L10.3845 15.4811L18.4571 11.0045L24.4016 21.7191L16.3289 26.1958ZM11.4119 15.7013L16.6224 25.095L23.3741 21.3521L18.1636 11.9586L11.4119 15.7013Z" fill="#3B517F"/>
</svg>
