<svg width="52" height="52" viewBox="0 0 52 52" fill="none" xmlns="http://www.w3.org/2000/svg">
<path d="M26.4841 41.6294C36.252 41.6294 44.1705 33.7109 44.1705 23.9429C44.1705 14.175 36.252 6.25648 26.4841 6.25648C16.7161 6.25648 8.79761 14.175 8.79761 23.9429C8.79761 33.7109 16.7161 41.6294 26.4841 41.6294Z" fill="#E7F1FA"/>
<path d="M26.4843 46.9135C32.8071 46.9135 37.9328 41.755 37.9328 35.3916C37.9328 29.0282 32.8071 23.8697 26.4843 23.8697C20.1615 23.8697 15.0358 29.0282 15.0358 35.3916C15.0358 41.755 20.1615 46.9135 26.4843 46.9135Z" fill="white"/>
<path d="M26.4841 47.3537C19.9526 47.3537 14.6686 41.9964 14.6686 35.4649C14.6686 28.9334 19.9526 23.5761 26.4841 23.5761C33.0156 23.5761 38.2995 28.9334 38.2995 35.4649C38.3729 41.9964 33.0156 47.3537 26.4841 47.3537ZM26.4841 24.3099C20.3929 24.3099 15.4025 29.3003 15.4025 35.4649C15.4025 41.6295 20.3929 46.6198 26.4841 46.6198C32.5753 46.6198 37.5656 41.6295 37.5656 35.4649C37.5656 29.3003 32.6487 24.3099 26.4841 24.3099Z" fill="#2D5062"/>
<path d="M26.4841 39.6479C26.2639 39.6479 26.1171 39.5011 26.1171 39.281V32.0156H24.209C23.9888 32.0156 23.8421 31.8688 23.8421 31.6487C23.8421 31.4285 23.9888 31.2817 24.209 31.2817H26.4841C26.7042 31.2817 26.851 31.4285 26.851 31.6487V39.3544C26.9244 39.5011 26.7042 39.6479 26.4841 39.6479Z" fill="#2D5062"/>
<path d="M28.0252 39.648H24.209C23.9888 39.648 23.8421 39.5012 23.8421 39.281C23.8421 39.0609 23.9888 38.9141 24.209 38.9141H28.0252C28.2453 38.9141 28.3921 39.0609 28.3921 39.281C28.3921 39.5012 28.2453 39.648 28.0252 39.648Z" fill="#2D5062"/>
<path d="M31.1075 25.0438C30.8873 25.0438 30.7405 24.897 30.7405 24.6768V21.2276H22.301V24.6768C22.301 24.897 22.1542 25.0438 21.934 25.0438C21.7139 25.0438 21.5671 24.897 21.5671 24.6768V20.4203H31.5478V24.6768C31.4744 24.897 31.3276 25.0438 31.1075 25.0438Z" fill="#2D5062"/>
<path d="M26.4846 12.1278L20.32 2.44068H11.1465L21.9345 19.3199" fill="#F7E436"/>
<path d="M21.934 19.6865C21.7872 19.6865 21.7138 19.6131 21.6404 19.5397L10.4855 2.07343H20.5396L26.851 11.9074C26.9978 12.0541 26.9244 12.3477 26.7042 12.4211C26.5574 12.5679 26.2639 12.4945 26.1905 12.2743L20.0993 2.73389H11.8799L22.2275 19.026C22.3743 19.1727 22.301 19.4663 22.0808 19.5397C22.0808 19.6865 22.0074 19.6865 21.934 19.6865Z" fill="#2D5062"/>
<path d="M41.8958 2.44062H32.7223L21.9343 19.3198V20.8609H31.1078V19.3198L41.8958 2.44062Z" fill="#F7E436"/>
<path d="M31.4744 21.2276H21.4937V19.1727L32.4285 2H42.4826L31.4744 19.3929V21.2276ZM22.301 20.4937H30.7406V19.2461L41.1616 2.88066H32.9422L22.301 19.3929V20.4937Z" fill="#2D5062"/>
<path d="M45.8584 43.3172C45.7116 43.3172 45.5648 43.2438 45.4915 43.097C45.4181 42.8769 45.4914 42.6567 45.7116 42.5833C46.739 42.143 47.5463 41.2624 48.6471 39.3543C47.4729 38.7672 46.2253 38.6204 45.0511 38.9139C43.51 39.3543 42.1156 40.5285 41.0148 42.4366C40.9414 42.6567 40.6479 42.6567 40.5011 42.5833C40.2809 42.5099 40.2809 42.2164 40.3543 42.0696C41.5285 40.0148 43.0697 38.6204 44.831 38.18C46.2987 37.8131 47.8399 38.0333 49.3076 38.9139C49.4544 38.9873 49.5278 39.2809 49.4544 39.4276C48.427 41.3357 47.3995 42.7301 46.0052 43.3172C45.9318 43.3172 45.9318 43.3172 45.8584 43.3172Z" fill="#2D5062"/>
<path d="M40.5744 49.9222C40.5011 49.9222 40.4277 49.9222 40.3543 49.9222C38.9599 49.8488 37.4922 49.1883 36.1712 47.8673C36.0244 47.7206 36.0244 47.5004 36.1712 47.3536C37.7123 45.7391 39.4003 44.8585 41.1616 44.7117C42.9229 44.5649 44.5374 45.2254 45.9318 46.5464C46.0786 46.6932 46.0786 46.9133 45.9318 47.0601C44.0971 48.9682 42.3357 49.9222 40.5744 49.9222ZM36.9785 47.5738C38.0793 48.5279 39.2535 49.1149 40.3543 49.1149C41.8954 49.1883 43.51 48.4545 45.1245 46.8399C43.9503 45.8125 42.6293 45.3722 41.2349 45.4456C39.6938 45.5923 38.2261 46.3262 36.9785 47.5738Z" fill="#2D5062"/>
<path d="M42.9228 36.7858C42.7027 36.7858 42.5559 36.5656 42.5559 36.3454C42.7027 34.1438 43.4366 32.3825 44.7575 31.1349C46.0051 29.9607 47.6931 29.3736 49.6012 29.5204C49.6745 29.5204 49.8213 29.5938 49.8947 29.6672C49.9681 29.7406 49.9681 29.814 49.9681 29.9607C49.7479 32.7495 48.8673 34.731 47.3261 35.8318C47.1793 35.9785 46.8858 35.9051 46.8124 35.7584C46.6656 35.6116 46.739 35.318 46.8858 35.2446C48.2068 34.364 48.9406 32.6761 49.1608 30.3277C47.6197 30.2543 46.2987 30.8414 45.2713 31.7954C44.1704 32.8963 43.4366 34.5108 43.3632 36.4922C43.2898 36.639 43.143 36.7858 42.9228 36.7858Z" fill="#2D5062"/>
<path d="M42.7027 30.3278C42.5559 30.3278 42.4092 30.2544 42.3358 30.0342C40.9414 25.7777 42.556 22.2551 46.2987 21.0809C46.3721 21.0809 46.5189 21.0809 46.5923 21.0809C46.6656 21.1543 46.739 21.2277 46.8124 21.301C47.6931 24.0164 47.5463 26.1447 46.5189 27.7592C46.3721 27.906 46.1519 27.9794 46.0052 27.8326C45.8584 27.6858 45.785 27.4656 45.9318 27.3189C46.8124 25.9979 46.9592 24.1632 46.2987 21.8882C43.2164 23.0624 41.9688 26.1446 43.143 29.7406C43.2164 29.9608 43.0696 30.181 42.9229 30.2544C42.7761 30.3277 42.7761 30.3278 42.7027 30.3278Z" fill="#2D5062"/>
<path d="M7.10972 43.3172C7.03634 43.3172 7.03633 43.3172 6.96294 43.3172C5.49518 42.7301 4.54114 41.3357 3.51371 39.4276C3.44032 39.2809 3.44033 38.9873 3.66049 38.9139C5.12825 38.0333 6.66942 37.8131 8.13717 38.18C9.89848 38.6204 11.4396 40.0148 12.6138 42.0696C12.6872 42.2898 12.6872 42.5099 12.467 42.5833C12.3202 42.6567 12.0267 42.6567 11.9533 42.4366C10.8525 40.5285 9.45811 39.3543 7.91697 38.9139C6.74277 38.6204 5.4952 38.7672 4.321 39.3543C5.42181 41.2624 6.22908 42.143 7.25651 42.5833C7.47667 42.6567 7.55005 42.8769 7.47666 43.097C7.40327 43.2438 7.2565 43.3172 7.10972 43.3172Z" fill="#2D5062"/>
<path d="M12.3936 49.9221C10.6323 49.9221 8.7976 48.9681 7.03629 47.1334C6.88951 46.9866 6.88951 46.7664 7.03629 46.6196C9.89841 43.9043 13.788 44.1978 16.7968 47.3535C16.9436 47.5003 16.9436 47.7205 16.7968 47.8672C15.4759 49.1882 14.0081 49.8487 12.6137 49.9221C12.5404 49.9221 12.467 49.9221 12.3936 49.9221ZM7.84354 46.9132C9.45807 48.5277 11.0726 49.2616 12.6137 49.1882C13.7146 49.1148 14.8887 48.6011 15.9896 47.6471C13.421 45.0785 10.2653 44.785 7.84354 46.9132Z" fill="#2D5062"/>
<path d="M9.97183 36.7859C9.75167 36.7859 9.6049 36.6391 9.6049 36.4189C9.45812 34.4375 8.7976 32.8229 7.69679 31.7221C6.66936 30.7681 5.34839 30.2543 3.80725 30.2543C4.02741 32.6027 4.83466 34.2173 6.08225 35.1713C6.22902 35.3181 6.30244 35.5383 6.15566 35.685C6.00889 35.8318 5.78872 35.9052 5.64194 35.7584C4.02741 34.6576 3.14678 32.6761 3 29.8874C3 29.6672 3.14678 29.5205 3.36694 29.4471C5.27502 29.3003 6.96292 29.8874 8.21051 31.0616C9.4581 32.3092 10.2654 34.0705 10.4121 36.2721C10.4121 36.5657 10.2654 36.7859 9.97183 36.7859C10.0452 36.7859 10.0452 36.7859 9.97183 36.7859Z" fill="#2D5062"/>
<path d="M10.192 30.3278C10.1186 30.3278 10.1186 30.3278 10.0452 30.3278C9.82502 30.2544 9.75164 30.0342 9.82503 29.814C10.9992 26.1446 9.75165 23.1357 6.66937 21.9615C6.00888 24.2366 6.08226 26.0713 7.0363 27.3922C7.18308 27.539 7.10967 27.8325 6.96289 27.9059C6.81611 28.0527 6.52255 27.9793 6.44917 27.8326C5.34835 26.218 5.27499 24.0898 6.15564 21.3744C6.15564 21.3011 6.22902 21.2277 6.3758 21.1543C6.44919 21.0809 6.59598 21.0809 6.66937 21.1543C10.4855 22.4019 12.0266 25.9245 10.6323 30.1076C10.5589 30.2543 10.3387 30.3278 10.192 30.3278Z" fill="#2D5062"/>
</svg>
