<svg width="80" height="80" viewBox="0 0 52 52" fill="none" xmlns="http://www.w3.org/2000/svg">
<path d="M25.5026 47.0053C37.3782 47.0053 47.0052 37.3782 47.0052 25.5026C47.0052 13.6271 37.3782 4 25.5026 4C13.627 4 4 13.6271 4 25.5026C4 37.3782 13.627 47.0053 25.5026 47.0053Z" fill="#E9F3FD"/>
<path d="M48.5463 9.35724H8.62341V39.2995H48.5463V9.35724Z" fill="white"/>
<path d="M44.6568 38.9326H22.4203V39.6665H44.6568V38.9326Z" fill="#005062"/>
<path d="M48.9134 39.6665H46.198V38.9326H48.1061V37.0245H48.9134V39.6665Z" fill="#005062"/>
<path d="M48.84 13.2468H48.1061V35.4833H48.84V13.2468Z" fill="#005062"/>
<path d="M48.9134 11.7057H48.1061V9.7976H46.198V8.99036H48.9134V11.7057Z" fill="#005062"/>
<path d="M44.6568 8.99036H12.4396V9.72423H44.6568V8.99036Z" fill="#005062"/>
<path d="M8.99035 11.7057H8.25647V8.99036H10.8984V9.7976H8.99035V11.7057Z" fill="#005062"/>
<path d="M11.7057 39.6664H8.25647V13.2468H8.99035V38.9325H11.7057V39.6664Z" fill="#005062"/>
<path d="M35.7769 36.6574C35.043 36.6574 34.3825 36.2171 33.722 35.8502C33.1349 35.4832 32.6212 35.1897 32.1075 35.1897C31.5938 35.1897 31.0067 35.5566 30.493 35.8502C29.8325 36.2171 29.2454 36.6574 28.4381 36.6574C27.6308 36.6574 27.0437 36.2171 26.3832 35.8502C25.7961 35.4832 25.2824 35.1163 24.7687 35.1163H24.0348V34.3824H24.7687C25.576 34.3824 26.1631 34.8227 26.8236 35.1897C27.4107 35.5566 27.9244 35.9236 28.4381 35.9236C28.9518 35.9236 29.5389 35.5567 30.0526 35.2631C30.7131 34.8962 31.3002 34.4558 32.1075 34.4558C32.8414 34.4558 33.5019 34.8962 34.1623 35.2631C34.7495 35.6301 35.2632 35.9236 35.7769 35.9236C36.2906 35.9236 36.8777 35.5567 37.3914 35.2631C38.0519 34.8962 38.639 34.4558 39.4463 34.4558C40.0334 34.4558 40.914 34.7493 41.8681 35.1897C42.8955 35.5566 44.5834 36.2171 44.877 35.8502C45.2439 35.5566 44.6568 34.2356 44.2165 33.355C43.8495 32.5477 43.4826 31.7405 43.4826 31.1534C43.4826 30.4195 43.9229 29.8324 44.2899 29.2453C44.6568 28.7316 44.9503 28.2179 44.9503 27.7775C44.9503 27.2638 44.5834 26.8235 44.2899 26.3831C43.8495 25.796 43.4826 25.2823 43.4826 24.5485C43.4826 23.8146 43.9229 23.2275 44.2899 22.7138C44.6568 22.2 44.9503 21.7598 44.9503 21.3195C44.9503 20.8058 44.5834 20.3654 44.2899 19.8517C43.8495 19.2646 43.4826 18.6774 43.4826 17.9436C43.4826 17.3565 43.8495 16.6227 44.2165 15.8154C44.5834 14.9347 45.2439 13.6137 44.877 13.3202C44.51 12.9532 42.8955 13.6137 41.8681 14.0541C40.8406 14.421 40.0334 14.7879 39.4463 14.7879C38.639 14.7879 38.0519 14.3476 37.3914 13.9072C36.8043 13.5403 36.2906 13.1734 35.7769 13.1734C35.2632 13.1734 34.6761 13.5403 34.1623 13.9072C33.5019 14.3476 32.9148 14.7879 32.1075 14.7879C31.3002 14.7879 30.7131 14.3476 30.0526 13.9072C29.4655 13.5403 28.9518 13.1734 28.4381 13.1734C27.9244 13.1734 27.3373 13.5403 26.8236 13.9072C26.1631 14.3476 25.576 14.7879 24.7687 14.7879C23.9615 14.7879 23.3743 14.3476 22.7139 13.9072C22.1268 13.5403 21.613 13.1734 21.0993 13.1734C20.5856 13.1734 19.9985 13.5403 19.4848 13.9072C18.8243 14.3476 18.2372 14.7879 17.4299 14.7879C16.8428 14.7879 15.9622 14.421 15.0815 14.0541C14.0541 13.6137 12.7331 13.0266 12.2928 13.3936C11.8525 13.7605 12.513 15.0081 12.9533 15.9621C13.3202 16.7694 13.6872 17.5033 13.6872 18.0904C13.6872 18.8243 13.2468 19.4114 12.8065 19.9985C12.4396 20.5122 12.0726 21.0259 12.0726 21.4662C12.0726 21.9065 12.3662 22.2735 12.7331 22.6404L12.146 23.1542C11.7057 22.7138 11.2654 22.2001 11.2654 21.4662C11.2654 20.7323 11.7057 20.1452 12.146 19.5581C12.513 19.0444 12.8799 18.5307 12.8799 18.0904C12.8799 17.7235 12.513 16.9896 12.2194 16.3291C11.5589 15.0081 10.8984 13.6138 11.7791 12.8799C12.513 12.146 13.9807 12.8065 15.3751 13.3936C16.109 13.7605 16.9162 14.1274 17.3566 14.1274C17.8703 14.1274 18.4574 13.7605 18.9711 13.3936C19.6316 12.9532 20.2187 12.5129 21.026 12.5129C21.8332 12.5129 22.4203 12.9532 23.0808 13.3936C23.6679 13.7605 24.1816 14.1274 24.6953 14.1274C25.2091 14.1274 25.7962 13.7605 26.3099 13.3936C26.9704 12.9532 27.5575 12.5129 28.3647 12.5129C29.172 12.5129 29.7591 12.9532 30.4196 13.3936C31.0067 13.7605 31.5204 14.1274 32.0341 14.1274C32.5478 14.1274 33.1349 13.7605 33.6486 13.3936C34.3091 12.9532 34.8962 12.5129 35.7035 12.5129C36.5108 12.5129 37.0979 12.9532 37.7583 13.3936C38.3454 13.7605 38.8592 14.1274 39.3729 14.1274C39.8132 14.1274 40.6939 13.7605 41.5011 13.4669C43.1157 12.8064 44.6568 12.2194 45.3907 12.9532C46.1245 13.6137 45.4641 15.0081 44.877 16.3291C44.5834 17.0629 44.2165 17.7968 44.2165 18.1638C44.2165 18.6775 44.5834 19.1178 44.877 19.6315C45.3173 20.2186 45.6842 20.8057 45.6842 21.5396C45.6842 22.2735 45.2439 22.8606 44.877 23.3743C44.51 23.888 44.2165 24.3283 44.2165 24.7687C44.2165 25.209 44.5834 25.7227 44.877 26.163C45.3173 26.7501 45.6842 27.2639 45.6842 27.9977C45.6842 28.7316 45.2439 29.3187 44.877 29.9058C44.51 30.4195 44.2165 30.9332 44.2165 31.3736C44.2165 31.7405 44.5834 32.5478 44.877 33.2082C45.4641 34.5292 46.1245 35.9236 45.3173 36.5841C44.6568 37.3179 43.1157 36.7309 41.5011 36.0704C40.6205 35.7768 39.8132 35.4099 39.2995 35.4099C38.7858 35.4099 38.1987 35.7768 37.685 36.0704C37.1712 36.2172 36.5108 36.6574 35.7769 36.6574Z" fill="#005062"/>
<path d="M13.9807 32.4011V43.923L17.063 41.648L20.1453 43.923V32.4011H13.9807Z" fill="white"/>
<path d="M20.5122 44.6568L17.063 42.0883L13.6138 44.6568V32.4011H14.3476V43.1891L17.063 41.1343L19.705 43.1891V32.4011H20.5122V44.6568Z" fill="#005062"/>
<path d="M17.0632 33.1352C20.022 33.1352 22.4205 30.7367 22.4205 27.7779C22.4205 24.8191 20.022 22.4207 17.0632 22.4207C14.1045 22.4207 11.7059 24.8191 11.7059 27.7779C11.7059 30.7367 14.1045 33.1352 17.0632 33.1352Z" fill="#FFE600"/>
<path d="M17.063 33.5754C13.9073 33.5754 11.3387 31.0068 11.3387 27.8511C11.3387 24.6954 13.9073 22.1269 17.063 22.1269C20.2187 22.1269 22.7872 24.6954 22.7872 27.8511C22.7872 31.0068 20.2187 33.5754 17.063 33.5754ZM17.063 22.7874C14.3476 22.7874 12.0726 24.989 12.0726 27.7777C12.0726 30.4931 14.2743 32.7681 17.063 32.7681C19.8517 32.7681 22.0534 30.5664 22.0534 27.7777C22.0534 25.0624 19.7783 22.7874 17.063 22.7874Z" fill="#3B517F"/>
<path d="M37.7583 20.5123H25.5026V21.2462H37.7583V20.5123Z" fill="#005062"/>
<path d="M37.7583 23.5946H25.5026V24.3285H37.7583V23.5946Z" fill="#005062"/>
<path d="M33.9422 26.6768H25.5026V27.4107H33.9422V26.6768Z" fill="#005062"/>
</svg>
